<svg id="visual" viewBox="0 0 960 540" width="960" height="540" xmlns="http://www.w3.org/2000/svg" xmlns:xlink="http://www.w3.org/1999/xlink" version="1.1" style="background-color: #367dc9;">
  <g>
    <g transform="translate(94, 73)">
      <path d="M0 -53.1L46 -26.6L46 26.6L0 53.1L-46 26.6L-46 -26.6Z" stroke="#10253cd4" fill="none" stroke-width="2"></path>
    </g>
    <g transform="translate(698, 149)">
      <path d="M0 -42L36.4 -21L36.4 21L0 42L-36.4 21L-36.4 -21Z" stroke="#10253cd4" fill="none" stroke-width="2"></path>
    </g>
    <g transform="translate(414, 315)">
      <path d="M0 -47L40.7 -23.5L40.7 23.5L0 47L-40.7 23.5L-40.7 -23.5Z" stroke="#10253cd4" fill="none" stroke-width="2"></path>
    </g>
    <g transform="translate(382, 428)">
      <path d="M0 -34L29.4 -17L29.4 17L0 34L-29.4 17L-29.4 -17Z" stroke="#10253cd4" fill="none" stroke-width="2"></path>
    </g>
    <g transform="translate(792, 301)">
      <path d="M0 -33L28.6 -16.5L28.6 16.5L0 33L-28.6 16.5L-28.6 -16.5Z" stroke="#10253cd4" fill="none" stroke-width="2"></path>
    </g>
    <g transform="translate(217, 43)">
      <path d="M0 -35L30.3 -17.5L30.3 17.5L0 35L-30.3 17.5L-30.3 -17.5Z" stroke="#10253cd4" fill="none" stroke-width="2"></path>
    </g>
    <g transform="translate(589, 205)">
      <path d="M0 -6L5.2 -3L5.2 3L0 6L-5.2 3L-5.2 -3Z" stroke="#10253cd4" fill="none" stroke-width="2"></path>
    </g>
  </g>
</svg>
