<svg id="visual" viewBox="0 0 960 540" width="960" height="540" xmlns="http://www.w3.org/2000/svg" xmlns:xlink="http://www.w3.org/1999/xlink" version="1.1"><path d="M859 540L675 540L675 517L587 517L587 493L188 493L188 470L810 470L810 446L603 446L603 423L732 423L732 399L706 399L706 376L857 376L857 352L281 352L281 329L247 329L247 305L429 305L429 282L761 282L761 258L681 258L681 235L792 235L792 211L230 211L230 188L693 188L693 164L463 164L463 141L834 141L834 117L211 117L211 94L666 94L666 70L98 70L98 47L510 47L510 23L303 23L303 0L960 0L960 23L960 23L960 47L960 47L960 70L960 70L960 94L960 94L960 117L960 117L960 141L960 141L960 164L960 164L960 188L960 188L960 211L960 211L960 235L960 235L960 258L960 258L960 282L960 282L960 305L960 305L960 329L960 329L960 352L960 352L960 376L960 376L960 399L960 399L960 423L960 423L960 446L960 446L960 470L960 470L960 493L960 493L960 517L960 517L960 540L960 540Z" fill="#050d14"></path></svg>