<svg xmlns="http://www.w3.org/2000/svg" version="1.1" xmlns:xlink="http://www.w3.org/1999/xlink" xmlns:svgjs="http://svgjs.dev/svgjs" viewBox="0 0 800 800"><defs><linearGradient x1="50%" y1="0%" x2="50%" y2="100%" id="ffflurry-grad" gradientTransform="rotate(270)"><stop stop-color="hsl(0, 0%, 100%)" stop-opacity="1" offset="0%"></stop><stop stop-color="10253c" stop-opacity="1" offset="45%"></stop><stop stop-color="153251" stop-opacity="1" offset="100%"></stop></linearGradient></defs><rect width="100%" height="100%" fill="none"></rect><g fill="url(#ffflurry-grad)"><rect width="66" height="1" x="21" y="352.5" rx="0.5" transform="rotate(22, 54, 353)" opacity="0.83"></rect><rect width="101" height="1" x="716.5" y="367.5" rx="0.5" transform="rotate(22, 767, 368)" opacity="0.53"></rect><rect width="156" height="1" x="100" y="745.5" rx="0.5" transform="rotate(22, 178, 746)" opacity="0.23"></rect><rect width="195" height="1" x="-53.5" y="629.5" rx="0.5" transform="rotate(22, 44, 630)" opacity="0.78"></rect><rect width="69" height="1" x="313.5" y="56.5" rx="0.5" transform="rotate(22, 348, 57)" opacity="0.16"></rect><rect width="188" height="1" x="353" y="475.5" rx="0.5" transform="rotate(22, 447, 476)" opacity="0.32"></rect><rect width="131" height="1" x="601.5" y="545.5" rx="0.5" transform="rotate(22, 667, 546)" opacity="0.63"></rect><rect width="76" height="1" x="717" y="70.5" rx="0.5" transform="rotate(22, 755, 71)" opacity="0.30"></rect><rect width="144" height="1" x="95" y="566.5" rx="0.5" transform="rotate(22, 167, 567)" opacity="0.68"></rect><rect width="128" height="1" x="23" y="423.5" rx="0.5" transform="rotate(22, 87, 424)" opacity="0.96"></rect><rect width="56" height="1" x="599" y="256.5" rx="0.5" transform="rotate(22, 627, 257)" opacity="0.48"></rect><rect width="113" height="1" x="549.5" y="454.5" rx="0.5" transform="rotate(22, 606, 455)" opacity="0.37"></rect><rect width="74" height="1" x="249" y="647.5" rx="0.5" transform="rotate(22, 286, 648)" opacity="0.37"></rect><rect width="140" height="1" x="674" y="453.5" rx="0.5" transform="rotate(22, 744, 454)" opacity="0.14"></rect><rect width="301" height="1" x="129.5" y="466.5" rx="0.5" transform="rotate(22, 280, 467)" opacity="0.44"></rect><rect width="177" height="1" x="-25.5" y="262.5" rx="0.5" transform="rotate(22, 63, 263)" opacity="0.63"></rect><rect width="56" height="1" x="295" y="757.5" rx="0.5" transform="rotate(22, 323, 758)" opacity="0.48"></rect><rect width="178" height="1" x="433" y="49.5" rx="0.5" transform="rotate(22, 522, 50)" opacity="0.22"></rect><rect width="196" height="1" x="194" y="305.5" rx="0.5" transform="rotate(22, 292, 306)" opacity="0.59"></rect><rect width="78" height="1" x="651" y="170.5" rx="0.5" transform="rotate(22, 690, 171)" opacity="0.48"></rect><rect width="75" height="1" x="715.5" y="575.5" rx="0.5" transform="rotate(22, 753, 576)" opacity="0.11"></rect><rect width="106" height="1" x="6" y="749.5" rx="0.5" transform="rotate(22, 59, 750)" opacity="0.45"></rect><rect width="106" height="1" x="598" y="382.5" rx="0.5" transform="rotate(22, 651, 383)" opacity="0.34"></rect><rect width="173" height="1" x="90.5" y="309.5" rx="0.5" transform="rotate(22, 177, 310)" opacity="0.30"></rect><rect width="168" height="1" x="453" y="330.5" rx="0.5" transform="rotate(22, 537, 331)" opacity="0.28"></rect><rect width="111" height="1" x="37.5" y="502.5" rx="0.5" transform="rotate(22, 93, 503)" opacity="0.31"></rect><rect width="117" height="1" x="646.5" y="323.5" rx="0.5" transform="rotate(22, 705, 324)" opacity="0.62"></rect><rect width="184" height="1" x="402" y="733.5" rx="0.5" transform="rotate(22, 494, 734)" opacity="0.58"></rect><rect width="194" height="1" x="549" y="63.5" rx="0.5" transform="rotate(22, 646, 64)" opacity="0.20"></rect><rect width="168" height="1" x="434" y="167.5" rx="0.5" transform="rotate(22, 518, 168)" opacity="0.34"></rect><rect width="187" height="1" x="444.5" y="557.5" rx="0.5" transform="rotate(22, 538, 558)" opacity="0.96"></rect><rect width="50" height="1" x="736" y="248.5" rx="0.5" transform="rotate(22, 761, 249)" opacity="0.83"></rect><rect width="131" height="1" x="204.5" y="180.5" rx="0.5" transform="rotate(22, 270, 181)" opacity="0.66"></rect><rect width="114" height="1" x="109" y="652.5" rx="0.5" transform="rotate(22, 166, 653)" opacity="0.83"></rect><rect width="112" height="1" x="131" y="99.5" rx="0.5" transform="rotate(22, 187, 100)" opacity="0.12"></rect><rect width="108" height="1" x="357" y="340.5" rx="0.5" transform="rotate(22, 411, 341)" opacity="0.44"></rect><rect width="88" height="1" x="30" y="49.5" rx="0.5" transform="rotate(22, 74, 50)" opacity="0.87"></rect><rect width="124" height="1" x="338" y="620.5" rx="0.5" transform="rotate(22, 400, 621)" opacity="0.38"></rect><rect width="101" height="1" x="555.5" y="642.5" rx="0.5" transform="rotate(22, 606, 643)" opacity="0.16"></rect><rect width="104" height="1" x="348" y="193.5" rx="0.5" transform="rotate(22, 400, 194)" opacity="0.80"></rect><rect width="96" height="1" x="701" y="715.5" rx="0.5" transform="rotate(22, 749, 716)" opacity="0.28"></rect><rect width="100" height="1" x="594" y="743.5" rx="0.5" transform="rotate(22, 644, 744)" opacity="0.65"></rect><rect width="114" height="1" x="6" y="165.5" rx="0.5" transform="rotate(22, 63, 166)" opacity="0.10"></rect></g></svg>